# xmcd
#
# Track frame offsets:
#	150
#	11674
#	27171
#	52558
#	63357
#	75711
#	92333
#	104012
#	113320
#	128175
#	140480
#	155345
#	166726
#	179112
#	188279
#	200450
#	212722
#	226961
#	238629
#	250665
#	276983
#
# Disc length: 4440 seconds
#
# Revision: 0
# Processed by: cddbd v1.5.1PL0 Copyright (c) Steve Scherf et al.
# Submitted via: audiograbber 1.83.01
#
DISCID=0b115615
DTITLE=Bobby Womack - Lookin' for a love again - B.W. Goes C.W.
DYEAR=2004
DGENRE=Soul
TTITLE0=Lookin' for a love
TTITLE1=I don't wanna be hurt again
TTITLE2=Doing it my way
TTITLE3=Let it hang out
TTITLE4=Point of no return
TTITLE5=You're welcome, stop on by
TTITLE6=You're messing up a good thing
TTITLE7=Don't let me down
TTITLE8=Copper kettle
TTITLE9=There's one thing that beats failing
TTITLE10=Don't make this the last date for you and me
TTITLE11=Behind closed doors
TTITLE12=Bouquet of roses
TTITLE13=Tired of living in the country
TTITLE14=Tamished things
TTITLE15=Big bayou
TTITLE16=Song of the mockingbird
TTITLE17=I'd be ahead if I could quit while I'm behind
TTITLE18=You
TTITLE19=Take it on home
TTITLE20=Data Track
EXTD=
EXTT0=
EXTT1=
EXTT2=
EXTT3=
EXTT4=
EXTT5=
EXTT6=
EXTT7=
EXTT8=
EXTT9=
EXTT10=
EXTT11=
EXTT12=
EXTT13=
EXTT14=
EXTT15=
EXTT16=
EXTT17=
EXTT18=
EXTT19=
EXTT20=
PLAYORDER=
